<?xml version="1.0" standalone="no"?>
<!DOCTYPE svg PUBLIC "-//W3C//DTD SVG 20010904//EN"
 "http://www.w3.org/TR/2001/REC-SVG-20010904/DTD/svg10.dtd">
<svg version="1.0" xmlns="http://www.w3.org/2000/svg"
 width="700.000000pt" height="700.000000pt" viewBox="0 0 700.000000 700.000000"
 preserveAspectRatio="xMidYMid meet">
<metadata>
Created by potrace 1.11, written by Peter Selinger 2001-2013
</metadata>
<g transform="translate(0.000000,700.000000) scale(0.100000,-0.100000)"
fill="#000000" stroke="none">
<path d="M313 6985 c-108 -30 -195 -94 -250 -186 -68 -114 -63 156 -61 -3325
l3 -3149 23 -55 c46 -113 129 -196 242 -242 l55 -23 3175 0 3175 0 55 23 c113
46 196 129 242 242 l23 55 0 3175 0 3175 -23 55 c-46 113 -129 196 -242 242
l-55 23 -3155 2 c-2696 1 -3163 0 -3207 -12z m3354 -1390 c376 -71 657 -324
770 -692 24 -80 27 -103 27 -258 1 -148 -2 -181 -22 -254 -59 -218 -198 -419
-377 -547 -187 -134 -442 -200 -667 -174 -347 40 -639 250 -784 565 -65 140
-78 208 -78 405 0 163 2 181 28 264 112 365 390 616 762 690 94 19 245 19 341
1z m-924 -2020 c131 -101 314 -181 492 -216 93 -18 447 -19 530 -1 192 42 359
116 494 218 l75 56 63 -21 c161 -53 297 -136 427 -261 103 -99 192 -228 236
-342 59 -153 60 -166 60 -788 0 -557 0 -570 -21 -627 -26 -68 -92 -138 -164
-173 l-50 -25 -1385 0 -1385 0 -50 25 c-73 35 -138 105 -164 175 -22 58 -22
61 -19 659 4 588 4 603 26 674 79 259 273 476 552 617 84 43 178 83 198 84 7
1 45 -24 85 -54z"/>
</g>
</svg>
